# xmcd
#
# Track frame offsets: 
#        150
#        15787
#        33082
#        45142
#        56785
#        76007
#        97470
#        110655
#        122695
#        135575
#        149915
#        167482
#        181715
#        188892
#        201712
#        214040
#        229750
#
# Disc length: 3385 seconds
#
# Revision: 3
# Processed by: cddbd v1.5.1PL0 Copyright (c) Steve Scherf et al.
# Submitted via: ExactAudioCopy v0.95a5
#
DISCID=e80d3711
DTITLE=Fleetwood Mac - The Blues Years - Disc II
DYEAR=1900
DGENRE=
TTITLE0=Need Your Love Tonight
TTITLE1=If You Be My Baby
TTITLE2=Evenin' Boogie
TTITLE3=Lazy Poker Blues
TTITLE4=I've Lost My Baby
TTITLE5=Trying So Hard To Forget
TTITLE6=I Believe My Time Ain't Long
TTITLE7=Ramblin' Pony
TTITLE8=Black Magic Woman
TTITLE9=The Sun Is Shining
TTITLE10=Need Your Love So Bad
TTITLE11=Albatross
TTITLE12=Jigsaw Puzzle BLues
TTITLE13=Man Of The World
TTITLE14=Someone'e Gonna Get Their Head Kicked In Tonite
TTITLE15=Watch Out
TTITLE16=Worried Dream
EXTD=ESBCD/2
EXTT0=
EXTT1=
EXTT2=
EXTT3=
EXTT4=
EXTT5=
EXTT6=
EXTT7=
EXTT8=
EXTT9=
EXTT10=
EXTT11=
EXTT12=
EXTT13=
EXTT14=
EXTT15=
EXTT16=
PLAYORDER=
